<?xml version="1.0" encoding="UTF-8" standalone="no"?>
<!DOCTYPE score-partwise PUBLIC "-//Recordare//DTD MusicXML 1.0 Partwise//EN" "/musicxml/partwise.dtd">
<score-partwise>
	<work><work-title>Me Deixa</work-title>
	</work>
	<identification><creator type="artist">O Rappa</creator>
		<encoding><software>Guitar Pro 5</software>
			<encoding-description>MusicXML 1.0</encoding-description>
		</encoding>
		<miscellaneous></miscellaneous>
	</identification>
	<part-list><score-part id="P1"><part-name>Guitarra</part-name>
			<score-instrument id="P1-I1"><instrument-name></instrument-name>
			</score-instrument>
			<midi-instrument id="P1-I1"><midi-channel>1</midi-channel>
				<midi-program>26</midi-program>
			</midi-instrument>
		</score-part>
		<score-part id="P2"><part-name>Baixo</part-name>
			<score-instrument id="P2-I2"><instrument-name></instrument-name>
			</score-instrument>
			<midi-instrument id="P2-I2"><midi-channel>3</midi-channel>
				<midi-program>33</midi-program>
			</midi-instrument>
		</score-part>
		<score-part id="P3"><part-name>Guitarra 2</part-name>
			<score-instrument id="P3-I3"><instrument-name></instrument-name>
			</score-instrument>
			<midi-instrument id="P3-I3"><midi-channel>5</midi-channel>
				<midi-program>29</midi-program>
			</midi-instrument>
		</score-part>
	</part-list>
	<part id="P1">
		<measure number="1">
			<attributes><divisions>1</divisions>
				<key><fifths>0</fifths>
					<mode>major</mode>
				</key>
				<time><beats>2</beats>
					<beat-type>4</beat-type>
				</time>
				<clef><sign>TAB</sign>
					<line>5</line>
				</clef>
				<staff-details><staff-lines>6</staff-lines>
					<staff-tuning line="6"><tuning-step>E</tuning-step>
						<tuning-octave>5</tuning-octave>
					</staff-tuning>
					<staff-tuning line="5"><tuning-step>B</tuning-step>
						<tuning-octave>4</tuning-octave>
					</staff-tuning>
					<staff-tuning line="4"><tuning-step>G</tuning-step>
						<tuning-octave>4</tuning-octave>
					</staff-tuning>
					<staff-tuning line="3"><tuning-step>D</tuning-step>
						<tuning-octave>4</tuning-octave>
					</staff-tuning>
					<staff-tuning line="2"><tuning-step>A</tuning-step>
						<tuning-octave>3</tuning-octave>
					</staff-tuning>
					<staff-tuning line="1"><tuning-step>E</tuning-step>
						<tuning-octave>3</tuning-octave>
					</staff-tuning>
				</staff-details>
			</attributes>
			<sound pan="8" tempo="100"></sound>
			<barline location="left"><bar-style>heavy-light</bar-style>
			</barline>
		</measure>
		<measure number="2">
		</measure>
		<measure number="3">
			<attributes><divisions>4</divisions>
			</attributes>
			<barline location="left"><repeat direction="forward"></repeat>
			</barline>
			<note><pitch><step>D</step>
					<octave>5</octave>
				</pitch>
				<duration>2</duration>
				<voice>1</voice>
				<type>eighth</type>
				<notations><dynamics><f></f>
					</dynamics>
					<technical><string>3</string>
						<fret>7</fret>
					</technical>
				</notations>
			</note>
			<note><chord></chord>
				<pitch><step>G</step>
					<octave>5</octave>
				</pitch>
				<duration>2</duration>
				<voice>1</voice>
				<type>eighth</type>
				<notations><dynamics><f></f>
					</dynamics>
					<technical><string>2</string>
						<fret>8</fret>
					</technical>
				</notations>
			</note>
			<note><chord></chord>
				<pitch><step>A</step>
					<alter>1</alter>
					<octave>5</octave>
				</pitch>
				<duration>2</duration>
				<voice>1</voice>
				<type>eighth</type>
				<notations><dynamics><f></f>
					</dynamics>
					<technical><string>1</string>
						<fret>6</fret>
					</technical>
				</notations>
			</note>
			<note><pitch><step>D</step>
					<octave>5</octave>
				</pitch>
				<duration>1</duration>
				<voice>1</voice>
				<type>16th</type>
				<notations><dynamics><f></f>
					</dynamics>
					<technical><string>3</string>
						<fret>7</fret>
					</technical>
				</notations>
			</note>
			<note><chord></chord>
				<pitch><step>G</step>
					<octave>5</octave>
				</pitch>
				<duration>1</duration>
				<voice>1</voice>
				<type>16th</type>
				<notations><dynamics><f></f>
					</dynamics>
					<technical><string>2</string>
						<fret>8</fret>
					</technical>
				</notations>
			</note>
			<note><chord></chord>
				<pitch><step>A</step>
					<alter>1</alter>
					<octave>5</octave>
				</pitch>
				<duration>1</duration>
				<voice>1</voice>
				<type>16th</type>
				<notations><dynamics><f></f>
					</dynamics>
					<technical><string>1</string>
						<fret>6</fret>
					</technical>
				</notations>
			</note>
			<note><pitch><step>D</step>
					<octave>5</octave>
				</pitch>
				<duration>2</duration>
				<voice>1</voice>
				<type>eighth</type>
				<notations><dynamics><f></f>
					</dynamics>
					<technical><string>3</string>
						<fret>7</fret>
					</technical>
				</notations>
			</note>
			<note><chord></chord>
				<pitch><step>G</step>
					<octave>5</octave>
				</pitch>
				<duration>2</duration>
				<voice>1</voice>
				<type>eighth</type>
				<notations><dynamics><f></f>
					</dynamics>
					<technical><string>2</string>
						<fret>8</fret>
					</technical>
				</notations>
			</note>
			<note><pitch><step>D</step>
					<octave>5</octave>
				</pitch>
				<duration>1</duration>
				<voice>1</voice>
				<type>16th</type>
				<notations><dynamics><f></f>
					</dynamics>
					<technical><string>3</string>
						<fret>7</fret>
					</technical>
				</notations>
			</note>
			<note><chord></chord>
				<pitch><step>G</step>
					<octave>5</octave>
				</pitch>
				<duration>1</duration>
				<voice>1</voice>
				<type>16th</type>
				<notations><dynamics><f></f>
					</dynamics>
					<technical><string>2</string>
						<fret>8</fret>
					</technical>
				</notations>
			</note>
			<note><chord></chord>
				<pitch><step>A</step>
					<alter>1</alter>
					<octave>5</octave>
				</pitch>
				<duration>1</duration>
				<voice>1</voice>
				<type>16th</type>
				<notations><dynamics><f></f>
					</dynamics>
					<technical><string>1</string>
						<fret>6</fret>
					</technical>
				</notations>
			</note>
			<note><pitch><step>D</step>
					<octave>5</octave>
				</pitch>
				<duration>2</duration>
				<voice>1</voice>
				<type>eighth</type>
				<notations><dynamics><f></f>
					</dynamics>
					<technical><string>3</string>
						<fret>7</fret>
					</technical>
				</notations>
			</note>
			<note><chord></chord>
				<pitch><step>G</step>
					<octave>5</octave>
				</pitch>
				<duration>2</duration>
				<voice>1</voice>
				<type>eighth</type>
				<notations><dynamics><f></f>
					</dynamics>
					<technical><string>2</string>
						<fret>8</fret>
					</technical>
				</notations>
			</note>
			<note><chord></chord>
				<pitch><step>A</step>
					<alter>1</alter>
					<octave>5</octave>
				</pitch>
				<duration>2</duration>
				<voice>1</voice>
				<type>eighth</type>
				<notations><dynamics><f></f>
					</dynamics>
					<technical><string>1</string>
						<fret>6</fret>
					</technical>
				</notations>
			</note>
		</measure>
		<measure number="4">
			<note><pitch><step>C</step>
					<octave>5</octave>
				</pitch>
				<duration>1</duration>
				<voice>1</voice>
				<type>16th</type>
				<notations><dynamics><f></f>
					</dynamics>
					<technical><string>3</string>
						<fret>5</fret>
					</technical>
				</notations>
			</note>
			<note><chord></chord>
				<pitch><step>F</step>
					<octave>5</octave>
				</pitch>
				<duration>1</duration>
				<voice>1</voice>
				<type>16th</type>
				<notations><dynamics><f></f>
					</dynamics>
					<technical><string>2</string>
						<fret>6</fret>
					</technical>
				</notations>
			</note>
			<note><chord></chord>
				<pitch><step>A</step>
					<octave>5</octave>
				</pitch>
				<duration>1</duration>
				<voice>1</voice>
				<type>16th</type>
				<notations><dynamics><f></f>
					</dynamics>
					<technical><string>1</string>
						<fret>5</fret>
					</technical>
				</notations>
			</note>
			<note><pitch><step>C</step>
					<octave>5</octave>
				</pitch>
				<duration>1</duration>
				<voice>1</voice>
				<type>16th</type>
				<notations><dynamics><f></f>
					</dynamics>
					<technical><string>3</string>
						<fret>5</fret>
					</technical>
				</notations>
			</note>
			<note><chord></chord>
				<pitch><step>F</step>
					<octave>5</octave>
				</pitch>
				<duration>1</duration>
				<voice>1</voice>
				<type>16th</type>
				<notations><dynamics><f></f>
					</dynamics>
					<technical><string>2</string>
						<fret>6</fret>
					</technical>
				</notations>
			</note>
			<note><chord></chord>
				<pitch><step>A</step>
					<octave>5</octave>
				</pitch>
				<duration>1</duration>
				<voice>1</voice>
				<type>16th</type>
				<notations><dynamics><f></f>
					</dynamics>
					<technical><string>1</string>
						<fret>5</fret>
					</technical>
				</notations>
			</note>
			<note><pitch><step>C</step>
					<octave>5</octave>
				</pitch>
				<duration>1</duration>
				<voice>1</voice>
				<type>16th</type>
				<notations><dynamics><f></f>
					</dynamics>
					<technical><string>3</string>
						<fret>5</fret>
					</technical>
				</notations>
			</note>
			<note><chord></chord>
				<pitch><step>F</step>
					<octave>5</octave>
				</pitch>
				<duration>1</duration>
				<voice>1</voice>
				<type>16th</type>
				<notations><dynamics><f></f>
					</dynamics>
					<technical><string>2</string>
						<fret>6</fret>
					</technical>
				</notations>
			</note>
			<note><chord></chord>
				<pitch><step>A</step>
					<octave>5</octave>
				</pitch>
				<duration>1</duration>
				<voice>1</voice>
				<type>16th</type>
				<notations><dynamics><f></f>
					</dynamics>
					<technical><string>1</string>
						<fret>5</fret>
					</technical>
				</notations>
			</note>
			<note><pitch><step>C</step>
					<octave>5</octave>
				</pitch>
				<duration>1</duration>
				<voice>1</voice>
				<type>16th</type>
				<notations><dynamics><f></f>
					</dynamics>
					<technical><string>3</string>
						<fret>5</fret>
					</technical>
				</notations>
			</note>
			<note><chord></chord>
				<pitch><step>F</step>
					<octave>5</octave>
				</pitch>
				<duration>1</duration>
				<voice>1</voice>
				<type>16th</type>
				<notations><dynamics><f></f>
					</dynamics>
					<technical><string>2</string>
						<fret>6</fret>
					</technical>
				</notations>
			</note>
			<note><chord></chord>
				<pitch><step>A</step>
					<octave>5</octave>
				</pitch>
				<duration>1</duration>
				<voice>1</voice>
				<type>16th</type>
				<notations><dynamics><f></f>
					</dynamics>
					<technical><string>1</string>
						<fret>5</fret>
					</technical>
				</notations>
			</note>
			<note><pitch><step>C</step>
					<octave>5</octave>
				</pitch>
				<duration>1</duration>
				<voice>1</voice>
				<type>16th</type>
				<notations><dynamics><f></f>
					</dynamics>
					<technical><string>3</string>
						<fret>5</fret>
					</technical>
				</notations>
			</note>
			<note><chord></chord>
				<pitch><step>F</step>
					<octave>5</octave>
				</pitch>
				<duration>1</duration>
				<voice>1</voice>
				<type>16th</type>
				<notations><dynamics><f></f>
					</dynamics>
					<technical><string>2</string>
						<fret>6</fret>
					</technical>
				</notations>
			</note>
			<note><chord></chord>
				<pitch><step>A</step>
					<octave>5</octave>
				</pitch>
				<duration>1</duration>
				<voice>1</voice>
				<type>16th</type>
				<notations><dynamics><f></f>
					</dynamics>
					<technical><string>1</string>
						<fret>5</fret>
					</technical>
				</notations>
			</note>
			<note><pitch><step>C</step>
					<octave>5</octave>
				</pitch>
				<duration>1</duration>
				<voice>1</voice>
				<type>16th</type>
				<notations><dynamics><f></f>
					</dynamics>
					<technical><string>3</string>
						<fret>5</fret>
					</technical>
				</notations>
			</note>
			<note><chord></chord>
				<pitch><step>F</step>
					<octave>5</octave>
				</pitch>
				<duration>1</duration>
				<voice>1</voice>
				<type>16th</type>
				<notations><dynamics><f></f>
					</dynamics>
					<technical><string>2</string>
						<fret>6</fret>
					</technical>
				</notations>
			</note>
			<note><chord></chord>
				<pitch><step>A</step>
					<octave>5</octave>
				</pitch>
				<duration>1</duration>
				<voice>1</voice>
				<type>16th</type>
				<notations><dynamics><f></f>
					</dynamics>
					<technical><string>1</string>
						<fret>5</fret>
					</technical>
				</notations>
			</note>
			<note><pitch><step>C</step>
					<octave>5</octave>
				</pitch>
				<duration>2</duration>
				<voice>1</voice>
				<type>eighth</type>
				<notations><dynamics><f></f>
					</dynamics>
					<technical><string>3</string>
						<fret>5</fret>
					</technical>
				</notations>
			</note>
			<note><chord></chord>
				<pitch><step>F</step>
					<octave>5</octave>
				</pitch>
				<duration>2</duration>
				<voice>1</voice>
				<type>eighth</type>
				<notations><dynamics><f></f>
					</dynamics>
					<technical><string>2</string>
						<fret>6</fret>
					</technical>
				</notations>
			</note>
			<note><chord></chord>
				<pitch><step>A</step>
					<octave>5</octave>
				</pitch>
				<duration>2</duration>
				<voice>1</voice>
				<type>eighth</type>
				<notations><dynamics><f></f>
					</dynamics>
					<technical><string>1</string>
						<fret>5</fret>
					</technical>
				</notations>
			</note>
		</measure>
		<measure number="5">
			<note><pitch><step>G</step>
					<octave>5</octave>
				</pitch>
				<duration>2</duration>
				<voice>1</voice>
				<type>eighth</type>
				<notations><dynamics><f></f>
					</dynamics>
					<technical><string>2</string>
						<fret>8</fret>
					</technical>
				</notations>
			</note>
			<note><chord></chord>
				<pitch><step>C</step>
					<octave>6</octave>
				</pitch>
				<duration>2</duration>
				<voice>1</voice>
				<type>eighth</type>
				<notations><dynamics><f></f>
					</dynamics>
					<technical><string>1</string>
						<fret>8</fret>
					</technical>
				</notations>
			</note>
			<note><pitch><step>G</step>
					<octave>5</octave>
				</pitch>
				<duration>1</duration>
				<voice>1</voice>
				<type>16th</type>
				<notations><dynamics><f></f>
					</dynamics>
					<technical><string>2</string>
						<fret>8</fret>
					</technical>
				</notations>
			</note>
			<note><pitch><step>G</step>
					<octave>5</octave>
				</pitch>
				<duration>2</duration>
				<voice>1</voice>
				<type>eighth</type>
				<notations><dynamics><f></f>
					</dynamics>
					<technical><string>2</string>
						<fret>8</fret>
					</technical>
				</notations>
			</note>
			<note><chord></chord>
				<pitch><step>C</step>
					<octave>6</octave>
				</pitch>
				<duration>2</duration>
				<voice>1</voice>
				<type>eighth</type>
				<notations><dynamics><f></f>
					</dynamics>
					<technical><string>1</string>
						<fret>8</fret>
					</technical>
				</notations>
			</note>
			<note><pitch><step>G</step>
					<octave>5</octave>
				</pitch>
				<duration>1</duration>
				<voice>1</voice>
				<type>16th</type>
				<notations><dynamics><f></f>
					</dynamics>
					<technical><string>2</string>
						<fret>8</fret>
					</technical>
				</notations>
			</note>
			<note><chord></chord>
				<pitch><step>C</step>
					<octave>6</octave>
				</pitch>
				<duration>1</duration>
				<voice>1</voice>
				<type>16th</type>
				<notations><dynamics><f></f>
					</dynamics>
					<technical><string>1</string>
						<fret>8</fret>
					</technical>
				</notations>
			</note>
			<note><pitch><step>G</step>
					<octave>5</octave>
				</pitch>
				<duration>2</duration>
				<voice>1</voice>
				<type>eighth</type>
				<notations><dynamics><f></f>
					</dynamics>
					<technical><string>2</string>
						<fret>8</fret>
					</technical>
				</notations>
			</note>
			<note><chord></chord>
				<pitch><step>C</step>
					<octave>6</octave>
				</pitch>
				<duration>2</duration>
				<voice>1</voice>
				<type>eighth</type>
				<notations><dynamics><f></f>
					</dynamics>
					<technical><string>1</string>
						<fret>8</fret>
					</technical>
				</notations>
			</note>
		</measure>
		<measure number="6">
			<barline><repeat direction="backward" times="2"></repeat>
			</barline>
			<note><pitch><step>A</step>
					<octave>5</octave>
				</pitch>
				<duration>1</duration>
				<voice>1</voice>
				<type>16th</type>
				<notations><dynamics><f></f>
					</dynamics>
					<technical><string>2</string>
						<fret>10</fret>
					</technical>
				</notations>
			</note>
			<note><chord></chord>
				<pitch><step>D</step>
					<octave>6</octave>
				</pitch>
				<duration>1</duration>
				<voice>1</voice>
				<type>16th</type>
				<notations><dynamics><f></f>
					</dynamics>
					<technical><string>1</string>
						<fret>10</fret>
					</technical>
				</notations>
			</note>
			<note><pitch><step>A</step>
					<octave>5</octave>
				</pitch>
				<duration>1</duration>
				<voice>1</voice>
				<type>16th</type>
				<notations><dynamics><f></f>
					</dynamics>
					<technical><string>2</string>
						<fret>10</fret>
					</technical>
				</notations>
			</note>
			<note><chord></chord>
				<pitch><step>D</step>
					<octave>6</octave>
				</pitch>
				<duration>1</duration>
				<voice>1</voice>
				<type>16th</type>
				<notations><dynamics><f></f>
					</dynamics>
					<technical><string>1</string>
						<fret>10</fret>
					</technical>
				</notations>
			</note>
			<note><pitch><step>A</step>
					<octave>5</octave>
				</pitch>
				<duration>1</duration>
				<voice>1</voice>
				<type>16th</type>
				<notations><dynamics><f></f>
					</dynamics>
					<technical><string>2</string>
						<fret>10</fret>
					</technical>
				</notations>
			</note>
			<note><pitch><step>A</step>
					<octave>5</octave>
				</pitch>
				<duration>1</duration>
				<voice>1</voice>
				<type>16th</type>
				<notations><dynamics><f></f>
					</dynamics>
					<technical><string>2</string>
						<fret>10</fret>
					</technical>
				</notations>
			</note>
			<note><chord></chord>
				<pitch><step>D</step>
					<octave>6</octave>
				</pitch>
				<duration>1</duration>
				<voice>1</voice>
				<type>16th</type>
				<notations><dynamics><f></f>
					</dynamics>
					<technical><string>1</string>
						<fret>10</fret>
					</technical>
				</notations>
			</note>
			<note><pitch><step>A</step>
					<octave>5</octave>
				</pitch>
				<duration>1</duration>
				<voice>1</voice>
				<type>16th</type>
				<notations><dynamics><f></f>
					</dynamics>
					<technical><string>2</string>
						<fret>10</fret>
					</technical>
				</notations>
			</note>
			<note><chord></chord>
				<pitch><step>D</step>
					<octave>6</octave>
				</pitch>
				<duration>1</duration>
				<voice>1</voice>
				<type>16th</type>
				<notations><dynamics><f></f>
					</dynamics>
					<technical><string>1</string>
						<fret>10</fret>
					</technical>
				</notations>
			</note>
			<note><pitch><step>A</step>
					<octave>5</octave>
				</pitch>
				<duration>1</duration>
				<voice>1</voice>
				<type>16th</type>
				<notations><dynamics><f></f>
					</dynamics>
					<technical><string>2</string>
						<fret>10</fret>
					</technical>
				</notations>
			</note>
			<note><chord></chord>
				<pitch><step>D</step>
					<octave>6</octave>
				</pitch>
				<duration>1</duration>
				<voice>1</voice>
				<type>16th</type>
				<notations><dynamics><f></f>
					</dynamics>
					<technical><string>1</string>
						<fret>10</fret>
					</technical>
				</notations>
			</note>
			<note><pitch><step>A</step>
					<octave>5</octave>
				</pitch>
				<duration>2</duration>
				<voice>1</voice>
				<type>eighth</type>
				<notations><dynamics><f></f>
					</dynamics>
					<technical><string>2</string>
						<fret>10</fret>
					</technical>
				</notations>
			</note>
			<note><chord></chord>
				<pitch><step>D</step>
					<octave>6</octave>
				</pitch>
				<duration>2</duration>
				<voice>1</voice>
				<type>eighth</type>
				<notations><dynamics><f></f>
					</dynamics>
					<technical><string>1</string>
						<fret>10</fret>
					</technical>
				</notations>
			</note>
		</measure>
		<measure number="7">
			<barline location="left"><repeat direction="forward"></repeat>
			</barline>
		</measure>
		<measure number="8">
		</measure>
		<measure number="9">
			<note><rest></rest>
				<duration>2</duration>
				<voice>1</voice>
				<type>eighth</type>
			</note>
			<note><rest></rest>
				<duration>2</duration>
				<voice>1</voice>
				<type>eighth</type>
			</note>
			<note><rest></rest>
				<duration>2</duration>
				<voice>1</voice>
				<type>eighth</type>
			</note>
		</measure>
		<measure number="10">
		</measure>
		<measure number="11">
		</measure>
		<measure number="12">
		</measure>
		<measure number="13">
		</measure>
		<measure number="14">
			<barline><repeat direction="backward" times="6"></repeat>
			</barline>
		</measure>
		<measure number="15">
			<barline location="left"><repeat direction="forward"></repeat>
			</barline>
			<note><pitch><step>D</step>
					<octave>5</octave>
				</pitch>
				<duration>2</duration>
				<voice>1</voice>
				<type>eighth</type>
				<notations><dynamics><f></f>
					</dynamics>
					<technical><string>3</string>
						<fret>7</fret>
					</technical>
				</notations>
			</note>
			<note><chord></chord>
				<pitch><step>G</step>
					<octave>5</octave>
				</pitch>
				<duration>2</duration>
				<voice>1</voice>
				<type>eighth</type>
				<notations><dynamics><f></f>
					</dynamics>
					<technical><string>2</string>
						<fret>8</fret>
					</technical>
				</notations>
			</note>
			<note><chord></chord>
				<pitch><step>A</step>
					<alter>1</alter>
					<octave>5</octave>
				</pitch>
				<duration>2</duration>
				<voice>1</voice>
				<type>eighth</type>
				<notations><dynamics><f></f>
					</dynamics>
					<technical><string>1</string>
						<fret>6</fret>
					</technical>
				</notations>
			</note>
			<note><pitch><step>D</step>
					<octave>5</octave>
				</pitch>
				<duration>1</duration>
				<voice>1</voice>
				<type>16th</type>
				<notations><dynamics><f></f>
					</dynamics>
					<technical><string>3</string>
						<fret>7</fret>
					</technical>
				</notations>
			</note>
			<note><chord></chord>
				<pitch><step>G</step>
					<octave>5</octave>
				</pitch>
				<duration>1</duration>
				<voice>1</voice>
				<type>16th</type>
				<notations><dynamics><f></f>
					</dynamics>
					<technical><string>2</string>
						<fret>8</fret>
					</technical>
				</notations>
			</note>
			<note><chord></chord>
				<pitch><step>A</step>
					<alter>1</alter>
					<octave>5</octave>
				</pitch>
				<duration>1</duration>
				<voice>1</voice>
				<type>16th</type>
				<notations><dynamics><f></f>
					</dynamics>
					<technical><string>1</string>
						<fret>6</fret>
					</technical>
				</notations>
			</note>
			<note><pitch><step>D</step>
					<octave>5</octave>
				</pitch>
				<duration>2</duration>
				<voice>1</voice>
				<type>eighth</type>
				<notations><dynamics><f></f>
					</dynamics>
					<technical><string>3</string>
						<fret>7</fret>
					</technical>
				</notations>
			</note>
			<note><chord></chord>
				<pitch><step>G</step>
					<octave>5</octave>
				</pitch>
				<duration>2</duration>
				<voice>1</voice>
				<type>eighth</type>
				<notations><dynamics><f></f>
					</dynamics>
					<technical><string>2</string>
						<fret>8</fret>
					</technical>
				</notations>
			</note>
			<note><chord></chord>
				<pitch><step>A</step>
					<alter>1</alter>
					<octave>5</octave>
				</pitch>
				<duration>2</duration>
				<voice>1</voice>
				<type>eighth</type>
				<notations><dynamics><f></f>
					</dynamics>
					<technical><string>1</string>
						<fret>6</fret>
					</technical>
				</notations>
			</note>
			<note><pitch><step>D</step>
					<octave>5</octave>
				</pitch>
				<duration>1</duration>
				<voice>1</voice>
				<type>16th</type>
				<notations><dynamics><f></f>
					</dynamics>
					<technical><string>3</string>
						<fret>7</fret>
					</technical>
				</notations>
			</note>
			<note><chord></chord>
				<pitch><step>G</step>
					<octave>5</octave>
				</pitch>
				<duration>1</duration>
				<voice>1</voice>
				<type>16th</type>
				<notations><dynamics><f></f>
					</dynamics>
					<technical><string>2</string>
						<fret>8</fret>
					</technical>
				</notations>
			</note>
			<note><chord></chord>
				<pitch><step>A</step>
					<alter>1</alter>
					<octave>5</octave>
				</pitch>
				<duration>1</duration>
				<voice>1</voice>
				<type>16th</type>
				<notations><dynamics><f></f>
					</dynamics>
					<technical><string>1</string>
						<fret>6</fret>
					</technical>
				</notations>
			</note>
			<note><pitch><step>D</step>
					<octave>5</octave>
				</pitch>
				<duration>2</duration>
				<voice>1</voice>
				<type>eighth</type>
				<notations><dynamics><f></f>
					</dynamics>
					<technical><string>3</string>
						<fret>7</fret>
					</technical>
				</notations>
			</note>
			<note><chord></chord>
				<pitch><step>G</step>
					<octave>5</octave>
				</pitch>
				<duration>2</duration>
				<voice>1</voice>
				<type>eighth</type>
				<notations><dynamics><f></f>
					</dynamics>
					<technical><string>2</string>
						<fret>8</fret>
					</technical>
				</notations>
			</note>
			<note><chord></chord>
				<pitch><step>A</step>
					<alter>1</alter>
					<octave>5</octave>
				</pitch>
				<duration>2</duration>
				<voice>1</voice>
				<type>eighth</type>
				<notations><dynamics><f></f>
					</dynamics>
					<technical><string>1</string>
						<fret>6</fret>
					</technical>
				</notations>
			</note>
		</measure>
		<measure number="16">
			<note><pitch><step>C</step>
					<octave>5</octave>
				</pitch>
				<duration>1</duration>
				<voice>1</voice>
				<type>16th</type>
				<notations><dynamics><f></f>
					</dynamics>
					<technical><string>3</string>
						<fret>5</fret>
					</technical>
				</notations>
			</note>
			<note><chord></chord>
				<pitch><step>F</step>
					<octave>5</octave>
				</pitch>
				<duration>1</duration>
				<voice>1</voice>
				<type>16th</type>
				<notations><dynamics><f></f>
					</dynamics>
					<technical><string>2</string>
						<fret>6</fret>
					</technical>
				</notations>
			</note>
			<note><chord></chord>
				<pitch><step>A</step>
					<octave>5</octave>
				</pitch>
				<duration>1</duration>
				<voice>1</voice>
				<type>16th</type>
				<notations><dynamics><f></f>
					</dynamics>
					<technical><string>1</string>
						<fret>5</fret>
					</technical>
				</notations>
			</note>
			<note><pitch><step>C</step>
					<octave>5</octave>
				</pitch>
				<duration>1</duration>
				<voice>1</voice>
				<type>16th</type>
				<notations><dynamics><f></f>
					</dynamics>
					<technical><string>3</string>
						<fret>5</fret>
					</technical>
				</notations>
			</note>
			<note><chord></chord>
				<pitch><step>F</step>
					<octave>5</octave>
				</pitch>
				<duration>1</duration>
				<voice>1</voice>
				<type>16th</type>
				<notations><dynamics><f></f>
					</dynamics>
					<technical><string>2</string>
						<fret>6</fret>
					</technical>
				</notations>
			</note>
			<note><chord></chord>
				<pitch><step>A</step>
					<octave>5</octave>
				</pitch>
				<duration>1</duration>
				<voice>1</voice>
				<type>16th</type>
				<notations><dynamics><f></f>
					</dynamics>
					<technical><string>1</string>
						<fret>5</fret>
					</technical>
				</notations>
			</note>
			<note><pitch><step>C</step>
					<octave>5</octave>
				</pitch>
				<duration>1</duration>
				<voice>1</voice>
				<type>16th</type>
				<notations><dynamics><f></f>
					</dynamics>
					<technical><string>3</string>
						<fret>5</fret>
					</technical>
				</notations>
			</note>
			<note><chord></chord>
				<pitch><step>F</step>
					<octave>5</octave>
				</pitch>
				<duration>1</duration>
				<voice>1</voice>
				<type>16th</type>
				<notations><dynamics><f></f>
					</dynamics>
					<technical><string>2</string>
						<fret>6</fret>
					</technical>
				</notations>
			</note>
			<note><chord></chord>
				<pitch><step>A</step>
					<octave>5</octave>
				</pitch>
				<duration>1</duration>
				<voice>1</voice>
				<type>16th</type>
				<notations><dynamics><f></f>
					</dynamics>
					<technical><string>1</string>
						<fret>5</fret>
					</technical>
				</notations>
			</note>
			<note><pitch><step>C</step>
					<octave>5</octave>
				</pitch>
				<duration>1</duration>
				<voice>1</voice>
				<type>16th</type>
				<notations><dynamics><f></f>
					</dynamics>
					<technical><string>3</string>
						<fret>5</fret>
					</technical>
				</notations>
			</note>
			<note><chord></chord>
				<pitch><step>F</step>
					<octave>5</octave>
				</pitch>
				<duration>1</duration>
				<voice>1</voice>
				<type>16th</type>
				<notations><dynamics><f></f>
					</dynamics>
					<technical><string>2</string>
						<fret>6</fret>
					</technical>
				</notations>
			</note>
			<note><chord></chord>
				<pitch><step>A</step>
					<octave>5</octave>
				</pitch>
				<duration>1</duration>
				<voice>1</voice>
				<type>16th</type>
				<notations><dynamics><f></f>
					</dynamics>
					<technical><string>1</string>
						<fret>5</fret>
					</technical>
				</notations>
			</note>
			<note><pitch><step>C</step>
					<octave>5</octave>
				</pitch>
				<duration>1</duration>
				<voice>1</voice>
				<type>16th</type>
				<notations><dynamics><f></f>
					</dynamics>
					<technical><string>3</string>
						<fret>5</fret>
					</technical>
				</notations>
			</note>
			<note><chord></chord>
				<pitch><step>F</step>
					<octave>5</octave>
				</pitch>
				<duration>1</duration>
				<voice>1</voice>
				<type>16th</type>
				<notations><dynamics><f></f>
					</dynamics>
					<technical><string>2</string>
						<fret>6</fret>
					</technical>
				</notations>
			</note>
			<note><chord></chord>
				<pitch><step>A</step>
					<octave>5</octave>
				</pitch>
				<duration>1</duration>
				<voice>1</voice>
				<type>16th</type>
				<notations><dynamics><f></f>
					</dynamics>
					<technical><string>1</string>
						<fret>5</fret>
					</technical>
				</notations>
			</note>
			<note><pitch><step>C</step>
					<octave>5</octave>
				</pitch>
				<duration>1</duration>
				<voice>1</voice>
				<type>16th</type>
				<notations><dynamics><f></f>
					</dynamics>
					<technical><string>3</string>
						<fret>5</fret>
					</technical>
				</notations>
			</note>
			<note><chord></chord>
				<pitch><step>F</step>
					<octave>5</octave>
				</pitch>
				<duration>1</duration>
				<voice>1</voice>
				<type>16th</type>
				<notations><dynamics><f></f>
					</dynamics>
					<technical><string>2</string>
						<fret>6</fret>
					</technical>
				</notations>
			</note>
			<note><chord></chord>
				<pitch><step>A</step>
					<octave>5</octave>
				</pitch>
				<duration>1</duration>
				<voice>1</voice>
				<type>16th</type>
				<notations><dynamics><f></f>
					</dynamics>
					<technical><string>1</string>
						<fret>5</fret>
					</technical>
				</notations>
			</note>
			<note><pitch><step>C</step>
					<octave>5</octave>
				</pitch>
				<duration>2</duration>
				<voice>1</voice>
				<type>eighth</type>
				<notations><dynamics><f></f>
					</dynamics>
					<technical><string>3</string>
						<fret>5</fret>
					</technical>
				</notations>
			</note>
			<note><chord></chord>
				<pitch><step>F</step>
					<octave>5</octave>
				</pitch>
				<duration>2</duration>
				<voice>1</voice>
				<type>eighth</type>
				<notations><dynamics><f></f>
					</dynamics>
					<technical><string>2</string>
						<fret>6</fret>
					</technical>
				</notations>
			</note>
			<note><chord></chord>
				<pitch><step>A</step>
					<octave>5</octave>
				</pitch>
				<duration>2</duration>
				<voice>1</voice>
				<type>eighth</type>
				<notations><dynamics><f></f>
					</dynamics>
					<technical><string>1</string>
						<fret>5</fret>
					</technical>
				</notations>
			</note>
		</measure>
		<measure number="17">
			<note><pitch><step>G</step>
					<octave>5</octave>
				</pitch>
				<duration>2</duration>
				<voice>1</voice>
				<type>eighth</type>
				<notations><dynamics><f></f>
					</dynamics>
					<technical><string>2</string>
						<fret>8</fret>
					</technical>
				</notations>
			</note>
			<note><chord></chord>
				<pitch><step>C</step>
					<octave>6</octave>
				</pitch>
				<duration>2</duration>
				<voice>1</voice>
				<type>eighth</type>
				<notations><dynamics><f></f>
					</dynamics>
					<technical><string>1</string>
						<fret>8</fret>
					</technical>
				</notations>
			</note>
			<note><pitch><step>G</step>
					<octave>5</octave>
				</pitch>
				<duration>1</duration>
				<voice>1</voice>
				<type>16th</type>
				<notations><dynamics><f></f>
					</dynamics>
					<technical><string>2</string>
						<fret>8</fret>
					</technical>
				</notations>
			</note>
			<note><chord></chord>
				<pitch><step>C</step>
					<octave>6</octave>
				</pitch>
				<duration>1</duration>
				<voice>1</voice>
				<type>16th</type>
				<notations><dynamics><f></f>
					</dynamics>
					<technical><string>1</string>
						<fret>8</fret>
					</technical>
				</notations>
			</note>
			<note><pitch><step>G</step>
					<octave>5</octave>
				</pitch>
				<duration>2</duration>
				<voice>1</voice>
				<type>eighth</type>
				<notations><dynamics><f></f>
					</dynamics>
					<technical><string>2</string>
						<fret>8</fret>
					</technical>
				</notations>
			</note>
			<note><chord></chord>
				<pitch><step>C</step>
					<octave>6</octave>
				</pitch>
				<duration>2</duration>
				<voice>1</voice>
				<type>eighth</type>
				<notations><dynamics><f></f>
					</dynamics>
					<technical><string>1</string>
						<fret>8</fret>
					</technical>
				</notations>
			</note>
			<note><pitch><step>G</step>
					<octave>5</octave>
				</pitch>
				<duration>1</duration>
				<voice>1</voice>
				<type>16th</type>
				<notations><dynamics><f></f>
					</dynamics>
					<technical><string>2</string>
						<fret>8</fret>
					</technical>
				</notations>
			</note>
			<note><chord></chord>
				<pitch><step>C</step>
					<octave>6</octave>
				</pitch>
				<duration>1</duration>
				<voice>1</voice>
				<type>16th</type>
				<notations><dynamics><f></f>
					</dynamics>
					<technical><string>1</string>
						<fret>8</fret>
					</technical>
				</notations>
			</note>
			<note><pitch><step>G</step>
					<octave>5</octave>
				</pitch>
				<duration>2</duration>
				<voice>1</voice>
				<type>eighth</type>
				<notations><dynamics><f></f>
					</dynamics>
					<technical><string>2</string>
						<fret>8</fret>
					</technical>
				</notations>
			</note>
			<note><chord></chord>
				<pitch><step>C</step>
					<octave>6</octave>
				</pitch>
				<duration>2</duration>
				<voice>1</voice>
				<type>eighth</type>
				<notations><dynamics><f></f>
					</dynamics>
					<technical><string>1</string>
						<fret>8</fret>
					</technical>
				</notations>
			</note>
		</measure>
		<measure number="18">
			<barline><repeat direction="backward" times="4"></repeat>
			</barline>
			<barline><bar-style>light-heavy</bar-style>
			</barline>
			<note><pitch><step>A</step>
					<octave>5</octave>
				</pitch>
				<duration>1</duration>
				<voice>1</voice>
				<type>16th</type>
				<notations><dynamics><f></f>
					</dynamics>
					<technical><string>2</string>
						<fret>10</fret>
					</technical>
				</notations>
			</note>
			<note><chord></chord>
				<pitch><step>D</step>
					<octave>6</octave>
				</pitch>
				<duration>1</duration>
				<voice>1</voice>
				<type>16th</type>
				<notations><dynamics><f></f>
					</dynamics>
					<technical><string>1</string>
						<fret>10</fret>
					</technical>
				</notations>
			</note>
			<note><pitch><step>A</step>
					<octave>5</octave>
				</pitch>
				<duration>1</duration>
				<voice>1</voice>
				<type>16th</type>
				<notations><dynamics><f></f>
					</dynamics>
					<technical><string>2</string>
						<fret>10</fret>
					</technical>
				</notations>
			</note>
			<note><chord></chord>
				<pitch><step>D</step>
					<octave>6</octave>
				</pitch>
				<duration>1</duration>
				<voice>1</voice>
				<type>16th</type>
				<notations><dynamics><f></f>
					</dynamics>
					<technical><string>1</string>
						<fret>10</fret>
					</technical>
				</notations>
			</note>
			<note><pitch><step>A</step>
					<octave>5</octave>
				</pitch>
				<duration>1</duration>
				<voice>1</voice>
				<type>16th</type>
				<notations><dynamics><f></f>
					</dynamics>
					<technical><string>2</string>
						<fret>10</fret>
					</technical>
				</notations>
			</note>
			<note><chord></chord>
				<pitch><step>D</step>
					<octave>6</octave>
				</pitch>
				<duration>1</duration>
				<voice>1</voice>
				<type>16th</type>
				<notations><dynamics><f></f>
					</dynamics>
					<technical><string>1</string>
						<fret>10</fret>
					</technical>
				</notations>
			</note>
			<note><pitch><step>A</step>
					<octave>5</octave>
				</pitch>
				<duration>1</duration>
				<voice>1</voice>
				<type>16th</type>
				<notations><dynamics><f></f>
					</dynamics>
					<technical><string>2</string>
						<fret>10</fret>
					</technical>
				</notations>
			</note>
			<note><chord></chord>
				<pitch><step>D</step>
					<octave>6</octave>
				</pitch>
				<duration>1</duration>
				<voice>1</voice>
				<type>16th</type>
				<notations><dynamics><f></f>
					</dynamics>
					<technical><string>1</string>
						<fret>10</fret>
					</technical>
				</notations>
			</note>
			<note><pitch><step>A</step>
					<octave>5</octave>
				</pitch>
				<duration>1</duration>
				<voice>1</voice>
				<type>16th</type>
				<notations><dynamics><f></f>
					</dynamics>
					<technical><string>2</string>
						<fret>10</fret>
					</technical>
				</notations>
			</note>
			<note><chord></chord>
				<pitch><step>D</step>
					<octave>6</octave>
				</pitch>
				<duration>1</duration>
				<voice>1</voice>
				<type>16th</type>
				<notations><dynamics><f></f>
					</dynamics>
					<technical><string>1</string>
						<fret>10</fret>
					</technical>
				</notations>
			</note>
			<note><pitch><step>A</step>
					<octave>5</octave>
				</pitch>
				<duration>1</duration>
				<voice>1</voice>
				<type>16th</type>
				<notations><dynamics><f></f>
					</dynamics>
					<technical><string>2</string>
						<fret>10</fret>
					</technical>
				</notations>
			</note>
			<note><chord></chord>
				<pitch><step>D</step>
					<octave>6</octave>
				</pitch>
				<duration>1</duration>
				<voice>1</voice>
				<type>16th</type>
				<notations><dynamics><f></f>
					</dynamics>
					<technical><string>1</string>
						<fret>10</fret>
					</technical>
				</notations>
			</note>
			<note><pitch><step>A</step>
					<octave>5</octave>
				</pitch>
				<duration>2</duration>
				<voice>1</voice>
				<type>eighth</type>
				<notations><dynamics><f></f>
					</dynamics>
					<technical><string>2</string>
						<fret>10</fret>
					</technical>
				</notations>
			</note>
			<note><chord></chord>
				<pitch><step>D</step>
					<octave>6</octave>
				</pitch>
				<duration>2</duration>
				<voice>1</voice>
				<type>eighth</type>
				<notations><dynamics><f></f>
					</dynamics>
					<technical><string>1</string>
						<fret>10</fret>
					</technical>
				</notations>
			</note>
		</measure>
	</part>
	<part id="P2">
		<measure number="1">
			<attributes><divisions>1</divisions>
				<key><fifths>0</fifths>
					<mode>major</mode>
				</key>
				<time><beats>2</beats>
					<beat-type>4</beat-type>
				</time>
				<clef><sign>TAB</sign>
					<line>5</line>
				</clef>
				<staff-details><staff-lines>4</staff-lines>
					<staff-tuning line="4"><tuning-step>G</tuning-step>
						<tuning-octave>3</tuning-octave>
					</staff-tuning>
					<staff-tuning line="3"><tuning-step>D</tuning-step>
						<tuning-octave>3</tuning-octave>
					</staff-tuning>
					<staff-tuning line="2"><tuning-step>A</tuning-step>
						<tuning-octave>2</tuning-octave>
					</staff-tuning>
					<staff-tuning line="1"><tuning-step>E</tuning-step>
						<tuning-octave>2</tuning-octave>
					</staff-tuning>
				</staff-details>
			</attributes>
			<sound pan="8"></sound>
			<barline location="left"><bar-style>heavy-light</bar-style>
			</barline>
		</measure>
		<measure number="2">
		</measure>
		<measure number="3">
			<barline location="left"><repeat direction="forward"></repeat>
			</barline>
		</measure>
		<measure number="4">
		</measure>
		<measure number="5">
		</measure>
		<measure number="6">
			<barline><repeat direction="backward" times="2"></repeat>
			</barline>
		</measure>
		<measure number="7">
			<attributes><divisions>2</divisions>
			</attributes>
			<barline location="left"><repeat direction="forward"></repeat>
			</barline>
			<note><pitch><step>A</step>
					<octave>2</octave>
				</pitch>
				<duration>1</duration>
				<voice>1</voice>
				<type>eighth</type>
				<notations><dynamics><f></f>
					</dynamics>
					<technical><string>4</string>
						<fret>5</fret>
					</technical>
				</notations>
			</note>
			<note><pitch><step>D</step>
					<octave>3</octave>
				</pitch>
				<duration>1</duration>
				<voice>1</voice>
				<type>eighth</type>
				<notations><dynamics><f></f>
					</dynamics>
					<technical><string>3</string>
						<fret>5</fret>
					</technical>
				</notations>
			</note>
			<note><pitch><step>A</step>
					<octave>2</octave>
				</pitch>
				<duration>1</duration>
				<voice>1</voice>
				<type>eighth</type>
				<notations><dynamics><f></f>
					</dynamics>
					<technical><string>4</string>
						<fret>5</fret>
					</technical>
				</notations>
			</note>
			<note><pitch><step>D</step>
					<octave>3</octave>
				</pitch>
				<duration>1</duration>
				<voice>1</voice>
				<type>eighth</type>
				<notations><dynamics><f></f>
					</dynamics>
					<technical><string>3</string>
						<fret>5</fret>
					</technical>
				</notations>
			</note>
		</measure>
		<measure number="8">
			<note><pitch><step>A</step>
					<octave>2</octave>
				</pitch>
				<duration>1</duration>
				<voice>1</voice>
				<type>eighth</type>
				<notations><dynamics><f></f>
					</dynamics>
					<technical><string>4</string>
						<fret>5</fret>
					</technical>
				</notations>
			</note>
			<note><pitch><step>D</step>
					<octave>3</octave>
				</pitch>
				<duration>1</duration>
				<voice>1</voice>
				<type>eighth</type>
				<notations><dynamics><f></f>
					</dynamics>
					<technical><string>3</string>
						<fret>5</fret>
					</technical>
				</notations>
			</note>
			<note><pitch><step>A</step>
					<octave>2</octave>
				</pitch>
				<duration>1</duration>
				<voice>1</voice>
				<type>eighth</type>
				<notations><dynamics><f></f>
					</dynamics>
					<technical><string>4</string>
						<fret>5</fret>
					</technical>
				</notations>
			</note>
			<note><pitch><step>D</step>
					<octave>3</octave>
				</pitch>
				<duration>1</duration>
				<voice>1</voice>
				<type>eighth</type>
				<notations><dynamics><f></f>
					</dynamics>
					<technical><string>3</string>
						<fret>5</fret>
					</technical>
				</notations>
			</note>
		</measure>
		<measure number="9">
			<note><pitch><step>A</step>
					<octave>2</octave>
				</pitch>
				<duration>1</duration>
				<voice>1</voice>
				<type>eighth</type>
				<notations><dynamics><f></f>
					</dynamics>
					<technical><string>4</string>
						<fret>5</fret>
					</technical>
				</notations>
			</note>
			<note><pitch><step>D</step>
					<octave>3</octave>
				</pitch>
				<duration>1</duration>
				<voice>1</voice>
				<type>eighth</type>
				<notations><dynamics><f></f>
					</dynamics>
					<technical><string>3</string>
						<fret>5</fret>
					</technical>
				</notations>
			</note>
			<note><pitch><step>A</step>
					<octave>2</octave>
				</pitch>
				<duration>1</duration>
				<voice>1</voice>
				<type>eighth</type>
				<notations><dynamics><f></f>
					</dynamics>
					<technical><string>4</string>
						<fret>5</fret>
					</technical>
				</notations>
			</note>
			<note><pitch><step>D</step>
					<octave>3</octave>
				</pitch>
				<duration>1</duration>
				<voice>1</voice>
				<type>eighth</type>
				<notations><dynamics><f></f>
					</dynamics>
					<technical><string>3</string>
						<fret>5</fret>
					</technical>
				</notations>
			</note>
		</measure>
		<measure number="10">
			<note><pitch><step>A</step>
					<octave>2</octave>
				</pitch>
				<duration>1</duration>
				<voice>1</voice>
				<type>eighth</type>
				<notations><dynamics><f></f>
					</dynamics>
					<technical><string>4</string>
						<fret>5</fret>
					</technical>
				</notations>
			</note>
			<note><pitch><step>D</step>
					<octave>3</octave>
				</pitch>
				<duration>1</duration>
				<voice>1</voice>
				<type>eighth</type>
				<notations><dynamics><f></f>
					</dynamics>
					<technical><string>3</string>
						<fret>5</fret>
					</technical>
				</notations>
			</note>
			<note><pitch><step>A</step>
					<octave>2</octave>
				</pitch>
				<duration>1</duration>
				<voice>1</voice>
				<type>eighth</type>
				<notations><dynamics><f></f>
					</dynamics>
					<technical><string>4</string>
						<fret>5</fret>
					</technical>
				</notations>
			</note>
			<note><pitch><step>C</step>
					<octave>3</octave>
				</pitch>
				<duration>1</duration>
				<voice>1</voice>
				<type>eighth</type>
				<notations><dynamics><f></f>
					</dynamics>
					<technical><string>3</string>
						<fret>3</fret>
					</technical>
				</notations>
			</note>
		</measure>
		<measure number="11">
			<note><pitch><step>G</step>
					<octave>2</octave>
				</pitch>
				<duration>1</duration>
				<voice>1</voice>
				<type>eighth</type>
				<notations><dynamics><f></f>
					</dynamics>
					<technical><string>4</string>
						<fret>3</fret>
					</technical>
				</notations>
			</note>
			<note><pitch><step>C</step>
					<octave>3</octave>
				</pitch>
				<duration>1</duration>
				<voice>1</voice>
				<type>eighth</type>
				<notations><dynamics><f></f>
					</dynamics>
					<technical><string>3</string>
						<fret>3</fret>
					</technical>
				</notations>
			</note>
			<note><pitch><step>G</step>
					<octave>2</octave>
				</pitch>
				<duration>1</duration>
				<voice>1</voice>
				<type>eighth</type>
				<notations><dynamics><f></f>
					</dynamics>
					<technical><string>4</string>
						<fret>3</fret>
					</technical>
				</notations>
			</note>
			<note><pitch><step>C</step>
					<octave>3</octave>
				</pitch>
				<duration>1</duration>
				<voice>1</voice>
				<type>eighth</type>
				<notations><dynamics><f></f>
					</dynamics>
					<technical><string>3</string>
						<fret>3</fret>
					</technical>
				</notations>
			</note>
		</measure>
		<measure number="12">
			<note><pitch><step>G</step>
					<octave>2</octave>
				</pitch>
				<duration>1</duration>
				<voice>1</voice>
				<type>eighth</type>
				<notations><dynamics><f></f>
					</dynamics>
					<technical><string>4</string>
						<fret>3</fret>
					</technical>
				</notations>
			</note>
			<note><pitch><step>C</step>
					<octave>3</octave>
				</pitch>
				<duration>1</duration>
				<voice>1</voice>
				<type>eighth</type>
				<notations><dynamics><f></f>
					</dynamics>
					<technical><string>3</string>
						<fret>3</fret>
					</technical>
				</notations>
			</note>
			<note><pitch><step>G</step>
					<octave>2</octave>
				</pitch>
				<duration>1</duration>
				<voice>1</voice>
				<type>eighth</type>
				<notations><dynamics><f></f>
					</dynamics>
					<technical><string>4</string>
						<fret>3</fret>
					</technical>
				</notations>
			</note>
			<note><pitch><step>C</step>
					<octave>3</octave>
				</pitch>
				<duration>1</duration>
				<voice>1</voice>
				<type>eighth</type>
				<notations><dynamics><f></f>
					</dynamics>
					<technical><string>3</string>
						<fret>3</fret>
					</technical>
				</notations>
			</note>
		</measure>
		<measure number="13">
			<note><pitch><step>G</step>
					<octave>2</octave>
				</pitch>
				<duration>1</duration>
				<voice>1</voice>
				<type>eighth</type>
				<notations><dynamics><f></f>
					</dynamics>
					<technical><string>4</string>
						<fret>3</fret>
					</technical>
				</notations>
			</note>
			<note><pitch><step>C</step>
					<octave>3</octave>
				</pitch>
				<duration>1</duration>
				<voice>1</voice>
				<type>eighth</type>
				<notations><dynamics><f></f>
					</dynamics>
					<technical><string>3</string>
						<fret>3</fret>
					</technical>
				</notations>
			</note>
			<note><pitch><step>G</step>
					<octave>2</octave>
				</pitch>
				<duration>1</duration>
				<voice>1</voice>
				<type>eighth</type>
				<notations><dynamics><f></f>
					</dynamics>
					<technical><string>4</string>
						<fret>3</fret>
					</technical>
				</notations>
			</note>
			<note><pitch><step>C</step>
					<octave>3</octave>
				</pitch>
				<duration>1</duration>
				<voice>1</voice>
				<type>eighth</type>
				<notations><dynamics><f></f>
					</dynamics>
					<technical><string>3</string>
						<fret>3</fret>
					</technical>
				</notations>
			</note>
		</measure>
		<measure number="14">
			<barline><repeat direction="backward" times="6"></repeat>
			</barline>
			<note><pitch><step>C</step>
					<octave>3</octave>
				</pitch>
				<duration>1</duration>
				<voice>1</voice>
				<type>eighth</type>
				<notations><dynamics><f></f>
					</dynamics>
					<technical><string>3</string>
						<fret>3</fret>
					</technical>
				</notations>
			</note>
			<note><pitch><step>C</step>
					<octave>3</octave>
				</pitch>
				<duration>1</duration>
				<voice>1</voice>
				<type>eighth</type>
				<notations><dynamics><f></f>
					</dynamics>
					<technical><string>3</string>
						<fret>3</fret>
					</technical>
				</notations>
			</note>
			<note><pitch><step>C</step>
					<alter>1</alter>
					<octave>3</octave>
				</pitch>
				<duration>1</duration>
				<voice>1</voice>
				<type>eighth</type>
				<notations><dynamics><f></f>
					</dynamics>
					<technical><string>3</string>
						<fret>4</fret>
					</technical>
				</notations>
			</note>
			<note><pitch><step>D</step>
					<octave>3</octave>
				</pitch>
				<duration>1</duration>
				<voice>1</voice>
				<type>eighth</type>
				<notations><dynamics><f></f>
					</dynamics>
					<technical><string>3</string>
						<fret>5</fret>
					</technical>
				</notations>
			</note>
		</measure>
		<measure number="15">
			<barline location="left"><repeat direction="forward"></repeat>
			</barline>
			<note><pitch><step>D</step>
					<octave>3</octave>
				</pitch>
				<duration>1</duration>
				<voice>1</voice>
				<type>eighth</type>
				<notations><dynamics><f></f>
					</dynamics>
					<technical><string>3</string>
						<fret>5</fret>
					</technical>
				</notations>
			</note>
			<note><pitch><step>D</step>
					<octave>3</octave>
				</pitch>
				<duration>1</duration>
				<voice>1</voice>
				<type>eighth</type>
				<notations><dynamics><f></f>
					</dynamics>
					<technical><string>3</string>
						<fret>5</fret>
					</technical>
				</notations>
			</note>
			<note><pitch><step>D</step>
					<octave>3</octave>
				</pitch>
				<duration>1</duration>
				<voice>1</voice>
				<type>eighth</type>
				<notations><dynamics><f></f>
					</dynamics>
					<technical><string>3</string>
						<fret>5</fret>
					</technical>
				</notations>
			</note>
			<note><rest></rest>
				<duration>1</duration>
				<voice>1</voice>
				<type>eighth</type>
			</note>
		</measure>
		<measure number="16">
			<attributes><divisions>4</divisions>
			</attributes>
			<note><pitch><step>G</step>
					<octave>2</octave>
				</pitch>
				<duration>1</duration>
				<voice>1</voice>
				<type>16th</type>
				<notations><dynamics><f></f>
					</dynamics>
					<technical><string>4</string>
						<fret>3</fret>
					</technical>
				</notations>
			</note>
			<note><pitch><step>A</step>
					<octave>2</octave>
				</pitch>
				<duration>2</duration>
				<voice>1</voice>
				<type>eighth</type>
				<notations><dynamics><f></f>
					</dynamics>
					<technical><string>4</string>
						<fret>5</fret>
					</technical>
				</notations>
			</note>
			<note><rest></rest>
				<duration>2</duration>
				<voice>1</voice>
				<type>eighth</type>
			</note>
			<note><pitch><step>G</step>
					<octave>2</octave>
				</pitch>
				<duration>1</duration>
				<voice>1</voice>
				<type>16th</type>
				<notations><dynamics><f></f>
					</dynamics>
					<technical><string>4</string>
						<fret>3</fret>
					</technical>
				</notations>
			</note>
			<note><pitch><step>A</step>
					<octave>2</octave>
				</pitch>
				<duration>2</duration>
				<voice>1</voice>
				<type>eighth</type>
				<notations><dynamics><f></f>
					</dynamics>
					<technical><string>4</string>
						<fret>5</fret>
					</technical>
				</notations>
			</note>
		</measure>
		<measure number="17">
			<note><pitch><step>C</step>
					<octave>3</octave>
				</pitch>
				<duration>2</duration>
				<voice>1</voice>
				<type>eighth</type>
				<notations><dynamics><f></f>
					</dynamics>
					<technical><string>3</string>
						<fret>3</fret>
					</technical>
				</notations>
			</note>
			<note><pitch><step>C</step>
					<octave>3</octave>
				</pitch>
				<duration>2</duration>
				<voice>1</voice>
				<type>eighth</type>
				<notations><dynamics><f></f>
					</dynamics>
					<technical><string>3</string>
						<fret>3</fret>
					</technical>
				</notations>
			</note>
			<note><pitch><step>C</step>
					<octave>3</octave>
				</pitch>
				<duration>2</duration>
				<voice>1</voice>
				<type>eighth</type>
				<notations><dynamics><f></f>
					</dynamics>
					<technical><string>3</string>
						<fret>3</fret>
					</technical>
				</notations>
			</note>
			<note><rest></rest>
				<duration>2</duration>
				<voice>1</voice>
				<type>eighth</type>
			</note>
		</measure>
		<measure number="18">
			<barline><repeat direction="backward" times="4"></repeat>
			</barline>
			<barline><bar-style>light-heavy</bar-style>
			</barline>
			<note><pitch><step>G</step>
					<octave>2</octave>
				</pitch>
				<duration>1</duration>
				<voice>1</voice>
				<type>16th</type>
				<notations><dynamics><f></f>
					</dynamics>
					<technical><string>4</string>
						<fret>3</fret>
					</technical>
				</notations>
			</note>
			<note><pitch><step>A</step>
					<octave>2</octave>
				</pitch>
				<duration>2</duration>
				<voice>1</voice>
				<type>eighth</type>
				<notations><dynamics><f></f>
					</dynamics>
					<technical><string>4</string>
						<fret>5</fret>
					</technical>
				</notations>
			</note>
			<note><rest></rest>
				<duration>2</duration>
				<voice>1</voice>
				<type>eighth</type>
			</note>
			<note><pitch><step>G</step>
					<octave>2</octave>
				</pitch>
				<duration>1</duration>
				<voice>1</voice>
				<type>16th</type>
				<notations><dynamics><f></f>
					</dynamics>
					<technical><string>4</string>
						<fret>3</fret>
					</technical>
				</notations>
			</note>
			<note><pitch><step>A</step>
					<octave>2</octave>
				</pitch>
				<duration>2</duration>
				<voice>1</voice>
				<type>eighth</type>
				<notations><dynamics><f></f>
					</dynamics>
					<technical><string>4</string>
						<fret>5</fret>
					</technical>
				</notations>
			</note>
		</measure>
	</part>
	<part id="P3">
		<measure number="1">
			<attributes><divisions>1</divisions>
				<key><fifths>0</fifths>
					<mode>major</mode>
				</key>
				<time><beats>2</beats>
					<beat-type>4</beat-type>
				</time>
				<clef><sign>TAB</sign>
					<line>5</line>
				</clef>
				<staff-details><staff-lines>6</staff-lines>
					<staff-tuning line="6"><tuning-step>E</tuning-step>
						<tuning-octave>5</tuning-octave>
					</staff-tuning>
					<staff-tuning line="5"><tuning-step>B</tuning-step>
						<tuning-octave>4</tuning-octave>
					</staff-tuning>
					<staff-tuning line="4"><tuning-step>G</tuning-step>
						<tuning-octave>4</tuning-octave>
					</staff-tuning>
					<staff-tuning line="3"><tuning-step>D</tuning-step>
						<tuning-octave>4</tuning-octave>
					</staff-tuning>
					<staff-tuning line="2"><tuning-step>A</tuning-step>
						<tuning-octave>3</tuning-octave>
					</staff-tuning>
					<staff-tuning line="1"><tuning-step>E</tuning-step>
						<tuning-octave>3</tuning-octave>
					</staff-tuning>
				</staff-details>
			</attributes>
			<sound pan="8"></sound>
			<barline location="left"><bar-style>heavy-light</bar-style>
			</barline>
		</measure>
		<measure number="2">
		</measure>
		<measure number="3">
			<barline location="left"><repeat direction="forward"></repeat>
			</barline>
		</measure>
		<measure number="4">
		</measure>
		<measure number="5">
		</measure>
		<measure number="6">
			<barline><repeat direction="backward" times="2"></repeat>
			</barline>
		</measure>
		<measure number="7">
			<barline location="left"><repeat direction="forward"></repeat>
			</barline>
		</measure>
		<measure number="8">
		</measure>
		<measure number="9">
		</measure>
		<measure number="10">
		</measure>
		<measure number="11">
		</measure>
		<measure number="12">
		</measure>
		<measure number="13">
		</measure>
		<measure number="14">
			<barline><repeat direction="backward" times="6"></repeat>
			</barline>
		</measure>
		<measure number="15">
			<barline location="left"><repeat direction="forward"></repeat>
			</barline>
		</measure>
		<measure number="16">
		</measure>
		<measure number="17">
		</measure>
		<measure number="18">
			<barline><repeat direction="backward" times="4"></repeat>
			</barline>
			<barline><bar-style>light-heavy</bar-style>
			</barline>
		</measure>
	</part>
</score-partwise>
